<svg class="diagram-root" style="background: #f5f6f6" xmlns="http://www.w3.org/2000/svg" xmlns:xlink="http://www.w3.org/1999/xlink"><style>.diagram-root { font-family: "Helvetica Neue", sans-serif; font-size: 12px; } .t { overflow: visible; } .t-bg { y: 40; fill: #fff;   } .th { fill: #005aa0;   } .tht { fill: #fff; font-size: 14px;  } .tf { fill: #323c46; overflow: visible; } .tf.pk { fill: #005aa0; font-weight: bold; } .tf.fk { font-weight: bold; } .ty { fill: #adb1b5; font-weight: normal; text-anchor: end; } .r { fill: transparent; stroke: #c3c3c3; stroke-width: 1; } .l { stroke: 1; } .i { fill: #c2c7ce; stroke: #c2c7ce; } .i.ix { fill: #afb3b6; stroke: #000; } .fa { fill: transparent; overflow: visible; } .fa .bg.hover { fill: #f7f7f7; } .c { cy: 12; r: 4; stroke: #d2d2dc; fill: #d2d2dc; } .hr { fill: transparent; stroke: #323c46; stroke-opacity: 0.035; stroke-width: 13; } .dc { stroke: #fa5a3c; fill: #fa5a3c; } .x { stroke: white; stroke-width: 1; } .hl .th { fill: #1b9bff; } .hl .tht {  } .fhl .bg { fill: #e7f4ff; } .fhls .bg {  } .r.hl { stroke: #1b9bff; } .dim { opacity: 0.25; }</style><g class="drawing-wrapper" transform="translate(2, 351.25) scale(1,1)"><g class="rs"><path d="M 30 212 m -1, 0 a 1,1 0 1,0 2,0 a 1,1 0 1,0 -2,0 M 30 212 m -0.5, 0 a 0.5,0.5 0 1,0 1,0 a 0.5,0.5 0 1,0 -1,0  M30 212 L30 212 18 212 M 30 218 m -1, 0 a 1,1 0 1,0 2,0 a 1,1 0 1,0 -2,0 M 30 218 m -0.5, 0 a 0.5,0.5 0 1,0 1,0 a 0.5,0.5 0 1,0 -1,0  M30 218 L30 218 23 212 30 206 M 30 206 m -1, 0 a 1,1 0 1,0 2,0 a 1,1 0 1,0 -2,0 M 30 206 m -0.5, 0 a 0.5,0.5 0 1,0 1,0 a 0.5,0.5 0 1,0 -1,0  M18 212 C -11.55186119350184 212, -14.70186119350184 300.5, 23.25 300.5 M 35.25 300.5 m -1, 0 a 1,1 0 1,0 2,0 a 1,1 0 1,0 -2,0 M 35.25 300.5 m -0.5, 0 a 0.5,0.5 0 1,0 1,0 a 0.5,0.5 0 1,0 -1,0  M35.25 300.5 L35.25 300.5 23.25 300.5 M29.25 306.5 L29.25 306.5 29.25 294.5" id="h642248532" class="r"></path><path d="M 309.5 109.75 m -1, 0 a 1,1 0 1,0 2,0 a 1,1 0 1,0 -2,0 M 309.5 109.75 m -0.5, 0 a 0.5,0.5 0 1,0 1,0 a 0.5,0.5 0 1,0 -1,0  M309.5 109.75 L309.5 109.75 297.5 109.75 M 309.5 115.75 m -1, 0 a 1,1 0 1,0 2,0 a 1,1 0 1,0 -2,0 M 309.5 115.75 m -0.5, 0 a 0.5,0.5 0 1,0 1,0 a 0.5,0.5 0 1,0 -1,0  M309.5 115.75 L309.5 115.75 302.5 109.75 309.5 103.75 M 309.5 103.75 m -1, 0 a 1,1 0 1,0 2,0 a 1,1 0 1,0 -2,0 M 309.5 103.75 m -0.5, 0 a 0.5,0.5 0 1,0 1,0 a 0.5,0.5 0 1,0 -1,0  M297.5 109.75 Q 279.75 109.75, 262 98.38 T 226.5 87 M 214.5 87 m -1, 0 a 1,1 0 1,0 2,0 a 1,1 0 1,0 -2,0 M 214.5 87 m -0.5, 0 a 0.5,0.5 0 1,0 1,0 a 0.5,0.5 0 1,0 -1,0  M214.5 87 L214.5 87 226.5 87 M220.5 93 L220.5 93 220.5 81" id="h1679782090" class="r"></path><path d="M 309.5 134.75 m -1, 0 a 1,1 0 1,0 2,0 a 1,1 0 1,0 -2,0 M 309.5 134.75 m -0.5, 0 a 0.5,0.5 0 1,0 1,0 a 0.5,0.5 0 1,0 -1,0  M309.5 134.75 L309.5 134.75 297.5 134.75 M 309.5 140.75 m -1, 0 a 1,1 0 1,0 2,0 a 1,1 0 1,0 -2,0 M 309.5 140.75 m -0.5, 0 a 0.5,0.5 0 1,0 1,0 a 0.5,0.5 0 1,0 -1,0  M309.5 140.75 L309.5 140.75 302.5 134.75 309.5 128.75 M 309.5 128.75 m -1, 0 a 1,1 0 1,0 2,0 a 1,1 0 1,0 -2,0 M 309.5 128.75 m -0.5, 0 a 0.5,0.5 0 1,0 1,0 a 0.5,0.5 0 1,0 -1,0  M297.5 134.75 C 247.5 134.75, 241.65 299.5, 307.25 299.5 M 319.25 299.5 m -1, 0 a 1,1 0 1,0 2,0 a 1,1 0 1,0 -2,0 M 319.25 299.5 m -0.5, 0 a 0.5,0.5 0 1,0 1,0 a 0.5,0.5 0 1,0 -1,0  M319.25 299.5 L319.25 299.5 307.25 299.5 M313.25 305.5 L313.25 305.5 313.25 293.5" id="h3718665035" class="r"></path><path d="M 32.5 -39.25 m -1, 0 a 1,1 0 1,0 2,0 a 1,1 0 1,0 -2,0 M 32.5 -39.25 m -0.5, 0 a 0.5,0.5 0 1,0 1,0 a 0.5,0.5 0 1,0 -1,0  M32.5 -39.25 L32.5 -39.25 20.5 -39.25 M 32.5 -33.25 m -1, 0 a 1,1 0 1,0 2,0 a 1,1 0 1,0 -2,0 M 32.5 -33.25 m -0.5, 0 a 0.5,0.5 0 1,0 1,0 a 0.5,0.5 0 1,0 -1,0  M32.5 -33.25 L32.5 -33.25 25.5 -39.25 32.5 -45.25 M 32.5 -45.25 m -1, 0 a 1,1 0 1,0 2,0 a 1,1 0 1,0 -2,0 M 32.5 -45.25 m -0.5, 0 a 0.5,0.5 0 1,0 1,0 a 0.5,0.5 0 1,0 -1,0  M20.5 -39.25 C -30.3 -39.25, -30 -260, 20 -260 M 32 -260 m -1, 0 a 1,1 0 1,0 2,0 a 1,1 0 1,0 -2,0 M 32 -260 m -0.5, 0 a 0.5,0.5 0 1,0 1,0 a 0.5,0.5 0 1,0 -1,0  M32 -260 L32 -260 20 -260 M26 -254 L26 -254 26 -266" id="h2662826011" class="r"></path><path d="M 32.5 -14.25 m -1, 0 a 1,1 0 1,0 2,0 a 1,1 0 1,0 -2,0 M 32.5 -14.25 m -0.5, 0 a 0.5,0.5 0 1,0 1,0 a 0.5,0.5 0 1,0 -1,0  M32.5 -14.25 L32.5 -14.25 20.5 -14.25 M 32.5 -8.25 m -1, 0 a 1,1 0 1,0 2,0 a 1,1 0 1,0 -2,0 M 32.5 -8.25 m -0.5, 0 a 0.5,0.5 0 1,0 1,0 a 0.5,0.5 0 1,0 -1,0  M32.5 -8.25 L32.5 -8.25 25.5 -14.25 32.5 -20.25 M 32.5 -20.25 m -1, 0 a 1,1 0 1,0 2,0 a 1,1 0 1,0 -2,0 M 32.5 -20.25 m -0.5, 0 a 0.5,0.5 0 1,0 1,0 a 0.5,0.5 0 1,0 -1,0  M20.5 -14.25 C -17.26028649825775 -14.25, -15.760286498257749 87, 18 87 M 30 87 m -1, 0 a 1,1 0 1,0 2,0 a 1,1 0 1,0 -2,0 M 30 87 m -0.5, 0 a 0.5,0.5 0 1,0 1,0 a 0.5,0.5 0 1,0 -1,0  M30 87 L30 87 18 87 M24 93 L24 93 24 81" id="h2301659960" class="r"></path><path d="M 316.25 -239.25 m -1, 0 a 1,1 0 1,0 2,0 a 1,1 0 1,0 -2,0 M 316.25 -239.25 m -0.5, 0 a 0.5,0.5 0 1,0 1,0 a 0.5,0.5 0 1,0 -1,0  M316.25 -239.25 L316.25 -239.25 304.25 -239.25 M 316.25 -233.25 m -1, 0 a 1,1 0 1,0 2,0 a 1,1 0 1,0 -2,0 M 316.25 -233.25 m -0.5, 0 a 0.5,0.5 0 1,0 1,0 a 0.5,0.5 0 1,0 -1,0  M316.25 -233.25 L316.25 -233.25 309.25 -239.25 316.25 -245.25 M 316.25 -245.25 m -1, 0 a 1,1 0 1,0 2,0 a 1,1 0 1,0 -2,0 M 316.25 -245.25 m -0.5, 0 a 0.5,0.5 0 1,0 1,0 a 0.5,0.5 0 1,0 -1,0  M304.25 -239.25 Q 272.64 -239.25, 241.03 -249.62 T 177.81 -260 M 165.81 -260 m -1, 0 a 1,1 0 1,0 2,0 a 1,1 0 1,0 -2,0 M 165.81 -260 m -0.5, 0 a 0.5,0.5 0 1,0 1,0 a 0.5,0.5 0 1,0 -1,0  M165.81 -260 L165.81 -260 177.81 -260 M171.81 -254 L171.81 -254 171.81 -266" id="h24926315" class="r"></path><path d="M 316.25 -214.25 m -1, 0 a 1,1 0 1,0 2,0 a 1,1 0 1,0 -2,0 M 316.25 -214.25 m -0.5, 0 a 0.5,0.5 0 1,0 1,0 a 0.5,0.5 0 1,0 -1,0  M316.25 -214.25 L316.25 -214.25 304.25 -214.25 M 316.25 -208.25 m -1, 0 a 1,1 0 1,0 2,0 a 1,1 0 1,0 -2,0 M 316.25 -208.25 m -0.5, 0 a 0.5,0.5 0 1,0 1,0 a 0.5,0.5 0 1,0 -1,0  M316.25 -208.25 L316.25 -208.25 309.25 -214.25 316.25 -220.25 M 316.25 -220.25 m -1, 0 a 1,1 0 1,0 2,0 a 1,1 0 1,0 -2,0 M 316.25 -220.25 m -0.5, 0 a 0.5,0.5 0 1,0 1,0 a 0.5,0.5 0 1,0 -1,0  M304.25 -214.25 Q 272.64 -214.25, 241.03 -237.12 T 177.81 -260 M 165.81 -260 m -1, 0 a 1,1 0 1,0 2,0 a 1,1 0 1,0 -2,0 M 165.81 -260 m -0.5, 0 a 0.5,0.5 0 1,0 1,0 a 0.5,0.5 0 1,0 -1,0  M165.81 -260 L165.81 -260 177.81 -260 M171.81 -254 L171.81 -254 171.81 -266" id="h3397666913" class="r"></path><path d="M 311.25 -40.5 m -1, 0 a 1,1 0 1,0 2,0 a 1,1 0 1,0 -2,0 M 311.25 -40.5 m -0.5, 0 a 0.5,0.5 0 1,0 1,0 a 0.5,0.5 0 1,0 -1,0  M311.25 -40.5 L311.25 -40.5 299.25 -40.5 M 311.25 -34.5 m -1, 0 a 1,1 0 1,0 2,0 a 1,1 0 1,0 -2,0 M 311.25 -34.5 m -0.5, 0 a 0.5,0.5 0 1,0 1,0 a 0.5,0.5 0 1,0 -1,0  M311.25 -34.5 L311.25 -34.5 304.25 -40.5 311.25 -46.5 M 311.25 -46.5 m -1, 0 a 1,1 0 1,0 2,0 a 1,1 0 1,0 -2,0 M 311.25 -46.5 m -0.5, 0 a 0.5,0.5 0 1,0 1,0 a 0.5,0.5 0 1,0 -1,0  M299.25 -40.5 Q 268.89 -40.5, 238.53 -150.25 T 177.81 -260 M 165.81 -260 m -1, 0 a 1,1 0 1,0 2,0 a 1,1 0 1,0 -2,0 M 165.81 -260 m -0.5, 0 a 0.5,0.5 0 1,0 1,0 a 0.5,0.5 0 1,0 -1,0  M165.81 -260 L165.81 -260 177.81 -260 M171.81 -254 L171.81 -254 171.81 -266" id="h3232058307" class="r"></path><path d="M 311.25 -15.5 m -1, 0 a 1,1 0 1,0 2,0 a 1,1 0 1,0 -2,0 M 311.25 -15.5 m -0.5, 0 a 0.5,0.5 0 1,0 1,0 a 0.5,0.5 0 1,0 -1,0  M311.25 -15.5 L311.25 -15.5 299.25 -15.5 M 311.25 -9.5 m -1, 0 a 1,1 0 1,0 2,0 a 1,1 0 1,0 -2,0 M 311.25 -9.5 m -0.5, 0 a 0.5,0.5 0 1,0 1,0 a 0.5,0.5 0 1,0 -1,0  M311.25 -9.5 L311.25 -9.5 304.25 -15.5 311.25 -21.5 M 311.25 -21.5 m -1, 0 a 1,1 0 1,0 2,0 a 1,1 0 1,0 -2,0 M 311.25 -21.5 m -0.5, 0 a 0.5,0.5 0 1,0 1,0 a 0.5,0.5 0 1,0 -1,0  M299.25 -15.5 Q 268.89 -15.5, 238.53 -137.75 T 177.81 -260 M 165.81 -260 m -1, 0 a 1,1 0 1,0 2,0 a 1,1 0 1,0 -2,0 M 165.81 -260 m -0.5, 0 a 0.5,0.5 0 1,0 1,0 a 0.5,0.5 0 1,0 -1,0  M165.81 -260 L165.81 -260 177.81 -260 M171.81 -254 L171.81 -254 171.81 -266" id="h3394662748" class="r"></path></g><g class="hrs"></g><g class="ts"><svg width="184.5" height="200" x="30" y="30" id="h4200617828" class="t"><rect height="40" width="184.5" class="th"></rect><text x="13" y="25" class="tht">film</text><rect height="160" width="184.5" class="t-bg" y="40"></rect><text x="13" y="61" class="tf pk">id<tspan x="171.5" class="ty">INTEGER</tspan></text><path d="M7,14A2,2 0 0,1 5,12A2,2 0 0,1 7,10A2,2 0 0,1 9,12A2,2 0 0,1 7,14M12.65,10C11.83,7.67 9.61,6 7, 6A6, 6 0 0, 0 1, 12A6, 6 0 0, 0 7, 18C9.61, 18 11.83, 16.33 12.65, 14H17V18H21V14H23V10H12.65Z" class="i pk" transform="translate(98.162109375, 48) scale(0.65)"></path><text x="13" y="86" class="tf">name<tspan x="171.5" class="ty">VARCHAR</tspan></text><text x="13" y="111" class="tf">description<tspan x="171.5" class="ty">VARCHAR</tspan></text><text x="13" y="136" class="tf">release_date<tspan x="171.5" class="ty">TIMESTAMP</tspan></text><text x="13" y="161" class="tf">duration<tspan x="171.5" class="ty">BIGINT</tspan></text><text x="13" y="186" class="tf fk">raiting_id<tspan x="171.5" class="ty">(FK)</tspan></text></svg><svg width="133.81" height="100" x="35.25" y="243.5" id="h267134968" class="t"><rect height="40" width="133.81" class="th"></rect><text x="13" y="25" class="tht">raiting</text><rect height="60" width="133.81" class="t-bg" y="40"></rect><text x="13" y="61" class="tf pk">id<tspan x="120.81" class="ty">INTEGER</tspan></text><path d="M7,14A2,2 0 0,1 5,12A2,2 0 0,1 7,10A2,2 0 0,1 9,12A2,2 0 0,1 7,14M12.65,10C11.83,7.67 9.61,6 7, 6A6, 6 0 0, 0 1, 12A6, 6 0 0, 0 7, 18C9.61, 18 11.83, 16.33 12.65, 14H17V18H21V14H23V10H12.65Z" class="i pk" transform="translate(47.472109375, 48) scale(0.65)"></path><text x="13" y="86" class="tf">name<tspan x="120.81" class="ty">VARCHAR</tspan></text></svg><svg width="195.05" height="125" x="32.5" y="-121.25" id="h1213380004" class="t"><rect height="40" width="195.05" class="th"></rect><text x="13" y="25" class="tht">likes</text><rect height="85" width="195.05" class="t-bg" y="40"></rect><text x="13" y="61" class="tf pk">likes_id<tspan x="182.05" class="ty">(user_id+film_id)</tspan></text><path d="M7,14A2,2 0 0,1 5,12A2,2 0 0,1 7,10A2,2 0 0,1 9,12A2,2 0 0,1 7,14M12.65,10C11.83,7.67 9.61,6 7, 6A6, 6 0 0, 0 1, 12A6, 6 0 0, 0 7, 18C9.61, 18 11.83, 16.33 12.65, 14H17V18H21V14H23V10H12.65Z" class="i pk" transform="translate(73.01679687500001, 48) scale(0.65)"></path><text x="13" y="86" class="tf fk">user_id<tspan x="182.05" class="ty">(FK)</tspan></text><text x="13" y="111" class="tf fk">film_id<tspan x="182.05" class="ty">(FK)</tspan></text></svg><svg width="133.81" height="175" x="32" y="-317" id="h2728321744" class="t"><rect height="40" width="133.81" class="th"></rect><text x="13" y="25" class="tht">user</text><rect height="135" width="133.81" class="t-bg" y="40"></rect><text x="13" y="61" class="tf pk">id<tspan x="120.81" class="ty">INTEGER</tspan></text><path d="M7,14A2,2 0 0,1 5,12A2,2 0 0,1 7,10A2,2 0 0,1 9,12A2,2 0 0,1 7,14M12.65,10C11.83,7.67 9.61,6 7, 6A6, 6 0 0, 0 1, 12A6, 6 0 0, 0 7, 18C9.61, 18 11.83, 16.33 12.65, 14H17V18H21V14H23V10H12.65Z" class="i pk" transform="translate(47.472109375, 48) scale(0.65)"></path><text x="13" y="86" class="tf">email<tspan x="120.81" class="ty">VARCHAR</tspan></text><text x="13" y="111" class="tf">login<tspan x="120.81" class="ty">VARCHAR</tspan></text><text x="13" y="136" class="tf">name<tspan x="120.81" class="ty">VARCHAR</tspan></text><text x="13" y="161" class="tf">birthday<tspan x="120.81" class="ty">DATE</tspan></text></svg><svg width="175.73" height="125" x="316.25" y="-321.25" id="h3814618133" class="t"><rect height="40" width="175.73" class="th"></rect><text x="13" y="25" class="tht">user_friends</text><rect height="85" width="175.73" class="t-bg" y="40"></rect><text x="13" y="61" class="tf pk">id<tspan x="162.73" class="ty">(friend_id+user_id)</tspan></text><path d="M7,14A2,2 0 0,1 5,12A2,2 0 0,1 7,10A2,2 0 0,1 9,12A2,2 0 0,1 7,14M12.65,10C11.83,7.67 9.61,6 7, 6A6, 6 0 0, 0 1, 12A6, 6 0 0, 0 7, 18C9.61, 18 11.83, 16.33 12.65, 14H17V18H21V14H23V10H12.65Z" class="i pk" transform="translate(42.34132812499999, 48) scale(0.65)"></path><text x="13" y="86" class="tf fk">user_id<tspan x="162.73" class="ty">(FK)</tspan></text><text x="13" y="111" class="tf fk">friend_id<tspan x="162.73" class="ty">(FK)</tspan></text></svg><svg width="201.74" height="125" x="311.25" y="-122.5" id="h2792357605" class="t"><rect height="40" width="201.74" class="th"></rect><text x="13" y="25" class="tht">user_friend_requests</text><rect height="85" width="201.74" class="t-bg" y="40"></rect><text x="13" y="61" class="tf pk">id<tspan x="188.74" class="ty">(sender_id+receiver_id)</tspan></text><path d="M7,14A2,2 0 0,1 5,12A2,2 0 0,1 7,10A2,2 0 0,1 9,12A2,2 0 0,1 7,14M12.65,10C11.83,7.67 9.61,6 7, 6A6, 6 0 0, 0 1, 12A6, 6 0 0, 0 7, 18C9.61, 18 11.83, 16.33 12.65, 14H17V18H21V14H23V10H12.65Z" class="i pk" transform="translate(42.34156250000001, 48) scale(0.65)"></path><text x="13" y="86" class="tf fk">sender_id<tspan x="188.74" class="ty">(FK)</tspan></text><text x="13" y="111" class="tf fk">receiver_id<tspan x="188.74" class="ty">(FK)</tspan></text></svg><svg width="171.72" height="125" x="309.5" y="27.75" id="h1001868982" class="t"><rect height="40" width="171.72" class="th"></rect><text x="13" y="25" class="tht">film_genres</text><rect height="85" width="171.72" class="t-bg" y="40"></rect><text x="13" y="61" class="tf pk">id<tspan x="158.72" class="ty">(film_id+genre_id)</tspan></text><path d="M7,14A2,2 0 0,1 5,12A2,2 0 0,1 7,10A2,2 0 0,1 9,12A2,2 0 0,1 7,14M12.65,10C11.83,7.67 9.61,6 7, 6A6, 6 0 0, 0 1, 12A6, 6 0 0, 0 7, 18C9.61, 18 11.83, 16.33 12.65, 14H17V18H21V14H23V10H12.65Z" class="i pk" transform="translate(42.339140625, 48) scale(0.65)"></path><text x="13" y="86" class="tf fk">film_id<tspan x="158.72" class="ty">(FK)</tspan></text><text x="13" y="111" class="tf fk">genre_id<tspan x="158.72" class="ty">(FK)</tspan></text></svg><svg width="133.81" height="100" x="319.25" y="242.5" id="h1304626560" class="t"><rect height="40" width="133.81" class="th"></rect><text x="13" y="25" class="tht">genre</text><rect height="60" width="133.81" class="t-bg" y="40"></rect><text x="13" y="61" class="tf pk">id<tspan x="120.81" class="ty">INTEGER</tspan></text><path d="M7,14A2,2 0 0,1 5,12A2,2 0 0,1 7,10A2,2 0 0,1 9,12A2,2 0 0,1 7,14M12.65,10C11.83,7.67 9.61,6 7, 6A6, 6 0 0, 0 1, 12A6, 6 0 0, 0 7, 18C9.61, 18 11.83, 16.33 12.65, 14H17V18H21V14H23V10H12.65Z" class="i pk" transform="translate(47.472109375, 48) scale(0.65)"></path><text x="13" y="86" class="tf">name<tspan x="120.81" class="ty">VARCHAR</tspan></text></svg></g></g><text class="qdbd-link" x="10" y="20">www.quickdatabasediagrams.com</text></svg>